# xmcd
#
# Track frame offsets:
#	150
#	36634
#	61064
#	93200
#	115331
#	136704
#	167741
#
# Disc length: 2560 seconds
#
# Revision: 0
# Processed by: cddbd v1.5.2PL0 Copyright (c) Steve Scherf et al.
# Submitted via: dBpowerAMP V4.0
#
DISCID=5609fe07
DTITLE=Nanette Natal - I must Be Dreaming
DYEAR=2007
DGENRE=folk
TTITLE0=I must Be Dreaming
TTITLE1=An Age Of Hunger
TTITLE2=Cries from the Crescent Moon
TTITLE3=Colors
TTITLE4=Apple Pie
TTITLE5=Can We Begin With That
TTITLE6=Six Years Down
EXTD=
EXTT0=
EXTT1=
EXTT2=
EXTT3=
EXTT4=
EXTT5=
EXTT6=
PLAYORDER=
